<svg width="24" height="24" viewBox="0 0 24 24" fill="none" xmlns="http://www.w3.org/2000/svg">
<g clip-path="url(#clip0_1_1063)">
<path d="M4 18H9.5V19.25C9.5 19.9793 9.21027 20.6788 8.69454 21.1945C8.17882 21.7103 7.47935 22 6.75 22C6.02065 22 5.32118 21.7103 4.80546 21.1945C4.28973 20.6788 4 19.9793 4 19.25V18ZM8 6.11999C10 6.11999 11 8.99999 11 11C11 12 10.5 13 10 14.5L9.5 16H4C4 15 3.5 13.5 3.5 11C3.5 8.49999 5.498 6.11999 8 6.11999ZM20.054 14.098L19.837 15.329C19.7104 16.0473 19.3035 16.6859 18.7061 17.1043C18.1086 17.5227 17.3693 17.6866 16.651 17.56C15.9327 17.4333 15.2941 17.0265 14.8757 16.429C14.4573 15.8316 14.2934 15.0923 14.42 14.374L14.638 13.144L20.054 14.098ZM18.178 1.70499C20.642 2.13899 22.196 4.82899 21.762 7.29099C21.328 9.75399 20.575 11.144 20.402 12.129L14.985 11.174L14.753 9.60999C14.521 8.04599 14.203 6.97399 14.376 5.98999C14.723 4.01999 16.208 1.35799 18.178 1.70499Z" fill="#609693"/>
</g>
<defs>
<clipPath id="clip0_1_1063">
<rect width="24" height="24" fill="white"/>
</clipPath>
</defs>
</svg>
