<svg width="20" height="23" viewBox="0 0 20 23" fill="none" xmlns="http://www.w3.org/2000/svg">
<path d="M13.819 6.64486C14.0066 6.42727 14.1771 6.22786 14.3652 6.02792C14.3823 6.00974 14.3994 5.99156 14.3994 5.99156C14.8274 5.55478 15.0733 5.51196 15.6292 5.79513C15.6474 5.81223 15.665 5.81169 15.719 5.84535C15.7527 5.79136 15.7863 5.73737 15.8376 5.68283C16.4196 5.08246 17.001 4.46444 17.5829 3.86406C17.6684 3.77318 17.7721 3.69939 17.8581 3.62615C17.9271 3.57108 18.0153 3.56839 18.088 3.63679C18.1607 3.70519 18.1634 3.79338 18.1126 3.86555C18.0448 3.9559 17.9774 4.06388 17.909 4.13659C17.3282 4.77224 16.7297 5.40844 16.1312 6.04463C16.0628 6.11734 16.0467 6.17079 16.12 6.25683C16.267 6.44655 16.3093 6.67477 16.2987 6.90461C16.2859 7.0639 16.2191 7.18952 16.1165 7.29858C15.9118 7.53434 15.7071 7.77011 15.5025 8.00587C15.4341 8.07858 15.4352 8.11385 15.4902 8.18279C16.0564 8.80109 16.0545 9.89576 15.6864 10.5602C15.6025 10.704 15.4823 10.8136 15.3802 10.9403C13.8417 12.5939 12.3032 14.2475 10.7653 15.9187C10.0642 16.6639 9.3631 17.4092 8.662 18.1544C8.5936 18.2271 8.59521 18.28 8.65082 18.3666C8.8171 18.6087 8.98393 18.8685 9.13311 19.1287C9.26304 19.3366 9.23369 19.5317 9.08086 19.7306C8.94514 19.9113 8.73455 19.953 8.53837 19.8884C8.43147 19.8563 8.34112 19.7885 8.26787 19.7024C8.08395 19.4609 7.91713 19.2012 7.73267 18.942C6.44466 17.2334 4.89962 15.7799 3.02968 14.6718C2.9217 14.6044 2.81371 14.5371 2.72336 14.4693C2.50686 14.317 2.41005 14.0374 2.50888 13.8049C2.60771 13.5724 2.86906 13.4585 3.13579 13.521C3.20688 13.5364 3.27852 13.5696 3.35015 13.6027C3.54794 13.7202 3.76283 13.8196 3.94299 13.9377C4.05097 14.005 4.10335 13.9858 4.18939 13.9125C4.60033 13.4939 5.01127 13.0753 5.40457 12.6572C7.09803 10.8753 8.77438 9.11164 10.4678 7.32977C10.7072 7.07529 10.9648 6.83791 11.2219 6.58289C11.4965 6.32734 11.8279 6.19364 12.1796 6.14759C12.5489 6.10101 12.9028 6.12552 13.2593 6.23822C13.4389 6.33867 13.6362 6.43858 13.819 6.64486ZM5.45908 15.0213C6.14981 15.6711 6.82235 16.3038 7.51308 16.9536C7.82034 16.6088 8.14471 16.2458 8.45197 15.901C7.7976 15.2854 7.10688 14.6356 6.43433 14.0029C6.12653 14.3301 5.78399 14.676 5.45908 15.0213ZM4.61015 14.394C4.73685 14.4961 4.84537 14.581 4.93572 14.6489C4.95336 14.6484 4.971 14.6478 4.97046 14.6302C5.32956 14.2485 5.68866 13.8667 6.04777 13.485C6.06487 13.4669 6.08143 13.431 6.08089 13.4134C6.05787 13.2376 6.03538 13.0793 6.01398 12.9564C5.56937 13.429 5.08949 13.9027 4.61015 14.394ZM8.15412 17.7109C8.63292 17.2019 9.09463 16.7112 9.57397 16.2198C9.43286 16.2242 9.29175 16.2285 9.133 16.2333C9.08009 16.2349 9.01061 16.2724 8.95877 16.3092C8.63333 16.637 8.32607 16.9818 8.00063 17.3095C7.96643 17.3459 7.91405 17.3651 7.87985 17.4015C7.98999 17.5394 8.08141 17.6425 8.15412 17.7109ZM10.9719 9.96262C11.1537 10.1336 11.3531 10.3041 11.5349 10.4751C11.7348 10.6632 11.9524 10.8508 12.1523 11.0389C12.1887 11.0731 12.2598 11.0885 12.2769 11.0704C12.3629 10.9971 12.449 10.9239 12.5003 10.8693C12.0635 10.4413 11.663 10.0475 11.245 9.65416C11.1595 9.74504 11.0745 9.85356 10.9719 9.96262ZM8.78256 12.2716C8.80128 12.3064 8.81945 12.3235 8.83763 12.3406C9.18299 12.6655 9.54653 13.0075 9.89189 13.3324C10.0737 13.5034 10.0737 13.5034 10.2441 13.304C10.3125 13.2313 10.3109 13.1784 10.2382 13.11C9.85649 12.7508 9.49241 12.3912 9.11069 12.0321C9.09252 12.015 9.07488 12.0155 9.07488 12.0155C8.9712 12.0893 8.86806 12.1808 8.78256 12.2716ZM11.3882 12.0332C10.9696 11.6223 10.5515 11.229 10.1516 10.8528C10.0656 10.926 9.98011 11.0169 9.89461 11.1078C10.2223 11.4332 10.5495 11.741 10.8949 12.0659C11.1494 12.3053 11.167 12.3048 11.3882 12.0332C11.3871 11.9979 11.3877 12.0156 11.3882 12.0332Z" fill="#EE6A48"/>
<path d="M3.75567 15.9033C3.91818 16.0219 4.0267 16.1069 4.1534 16.2089C4.22557 16.2597 4.22719 16.3126 4.15879 16.3853C3.90282 16.6756 3.62922 16.9664 3.37272 17.2391C3.13386 17.5112 2.87682 17.7662 2.63741 18.0207C2.60321 18.0571 2.58611 18.0752 2.55191 18.1116C3.2934 18.6892 3.96649 19.3396 4.60645 20.0615C5.18839 19.4612 5.7527 18.8613 6.3341 18.2433C6.46242 18.3983 6.59019 18.5356 6.71851 18.6906C6.1371 19.3086 5.5557 19.9266 4.97376 20.527C5.08443 20.6825 5.17639 20.8033 5.26889 20.9417C5.36139 21.0801 5.45443 21.2362 5.51219 21.3933C5.60792 21.6376 5.50909 21.8701 5.28356 22.0006C5.0933 22.13 4.88057 22.1012 4.69826 21.9125C4.60737 21.827 4.51541 21.7062 4.44163 21.6026C3.53642 20.2884 2.39181 19.2287 1.02436 18.3877C0.916374 18.3204 0.808389 18.2531 0.699865 18.1681C0.500457 17.9977 0.47582 17.7689 0.609391 17.5176C0.726938 17.3199 0.988285 17.2059 1.20264 17.2877C1.39936 17.3699 1.59715 17.4875 1.77677 17.5879C1.86657 17.6382 1.97563 17.7408 2.06329 17.7204C2.15148 17.7177 2.21827 17.5921 2.28613 17.5018C2.74783 17.011 3.22718 16.5197 3.68834 16.0113C3.70544 15.9931 3.72147 15.9396 3.75567 15.9033Z" fill="#EE6A48"/>
<path d="M18.0664 2.91386C18.0483 2.89676 18.0301 2.87965 18.0295 2.86202C17.7499 2.37621 17.4355 1.90912 17.1911 1.42224C16.9088 0.848249 17.1572 0.311018 17.6628 0.10138C18.0113 -0.0504968 18.4202 0.042951 18.7115 0.334192C18.9847 0.608332 19.0677 1.01187 18.9015 1.35238C18.6686 1.81852 18.4351 2.26702 18.2016 2.71552C18.1514 2.80533 18.1177 2.85932 18.0664 2.91386Z" fill="#EE6A48"/>
</svg>
