<svg width="20" height="20" viewBox="0 0 20 20" fill="none" xmlns="http://www.w3.org/2000/svg">
<path d="M10 0C15.5167 0 20 4.49921 20 10C20 15.5167 15.5008 20 10 20C4.46741 20 0 15.5008 0 9.9523C0 4.48331 4.5151 0 10 0ZM10 0.842607C4.94436 0.842607 0.842607 4.92846 0.842607 9.9841C0.842607 15.0397 4.92846 19.1415 9.9682 19.1574C15.0556 19.1574 19.1574 15.0715 19.1415 10C19.1574 4.94436 15.0556 0.842607 10 0.842607Z" fill="#C7637E"/>
<path d="M16.6454 5.37365C16.1685 5.65982 15.6756 5.94599 15.1987 6.24805C15.1192 6.29575 15.0715 6.42293 15.0079 6.50242C15.1192 6.50242 15.2623 6.53422 15.3577 6.48653C15.8664 6.23215 16.3434 5.96188 16.8998 5.787C16.5182 6.02548 16.1208 6.26395 15.7392 6.50242C15.6438 6.56602 15.5326 6.59781 15.4531 6.67731C15.3736 6.7568 15.3259 6.85219 15.2623 6.93168C15.3736 6.93168 15.4849 6.96347 15.5803 6.93168C15.9618 6.7409 16.3275 6.53422 16.709 6.32754C16.8203 6.26395 16.9475 6.21626 17.1065 6.21626C16.7885 6.42293 16.4547 6.62961 16.1367 6.83629C16.0095 6.91578 15.8664 6.97937 15.7551 7.07476C15.6597 7.15425 15.5961 7.28144 15.5326 7.39273C15.6597 7.37683 15.7869 7.39273 15.8982 7.32913C16.2957 7.12246 16.6772 6.89988 17.0588 6.6932C17.1542 6.64551 17.2496 6.61371 17.345 6.56602C17.3609 6.59781 17.3768 6.62961 17.3927 6.66141C16.6931 7.10656 16.0095 7.55171 15.2941 7.96506C15.151 8.06045 14.9125 8.01276 14.7376 8.04455C14.2766 8.12405 13.752 8.10815 13.3545 8.33072C12.4165 8.83947 11.5262 9.4436 10.62 10.0477C10.5087 10.1272 10.4451 10.3339 10.4451 10.4929C10.4451 10.8426 10.5087 11.1765 10.5087 11.5263C10.5087 11.9237 10.2702 12.2258 9.98407 12.194C9.58661 12.1622 9.52302 11.8601 9.50712 11.5263C9.50712 11.3196 9.50712 11.1288 9.50712 10.8585C9.28454 11.0016 9.09376 11.1129 8.91888 11.2242C8.52143 11.4468 8.20346 11.415 8.04448 11.1288C7.8855 10.8585 8.01268 10.5406 8.39424 10.318C8.61682 10.1908 8.85529 10.0477 9.09377 9.96824C9.53892 9.84106 9.682 9.55489 9.6661 9.10974C9.61841 7.74249 9.60251 6.34344 9.60251 4.96029C9.60251 4.05409 9.60251 3.16379 9.61841 2.25759C9.61841 2.11451 9.7138 1.97142 9.77739 1.82834C9.93637 1.89193 10.1748 1.90783 10.2384 2.01912C10.4133 2.28939 10.5882 2.59146 10.62 2.90942C10.7154 3.75203 10.7472 4.61053 10.7949 5.46904C10.8267 5.88239 10.6995 6.24805 10.4292 6.58192C10.2861 6.7568 10.1589 6.99527 10.1589 7.21785C10.1589 7.93327 10.2225 8.64869 10.2702 9.4436C11.4944 8.87126 12.655 8.37842 13.6089 7.53581C13.7043 7.44042 13.8155 7.32913 13.8632 7.21785C14.0699 6.51832 14.6423 6.21626 15.2305 5.93009C15.6756 5.72341 16.1208 5.50084 16.5659 5.29416C16.6136 5.31006 16.6295 5.34185 16.6454 5.37365Z" fill="#C7637E"/>
<path d="M5.58057 3.21143C5.73955 3.05245 5.83494 2.86167 5.94623 2.84577C6.08931 2.81397 6.31189 2.87757 6.40728 2.98885C6.59805 3.22733 6.77294 3.5135 6.88422 3.79967C6.93192 3.92685 6.86832 4.16533 6.77293 4.27661C6.69344 4.3561 6.39138 4.3879 6.34368 4.32431C6.05751 3.99044 5.83494 3.60889 5.58057 3.21143Z" fill="#C7637E"/>
<path d="M14.42 3.21144C14.1498 3.60889 13.9272 3.99045 13.6569 4.32432C13.6092 4.38791 13.323 4.35611 13.2118 4.27662C13.1164 4.19713 13.0369 3.95866 13.0846 3.84737C13.2118 3.5294 13.3866 3.22734 13.5933 2.95707C13.6728 2.86168 13.8954 2.81398 14.0226 2.84578C14.1815 2.87757 14.2769 3.03656 14.42 3.21144Z" fill="#C7637E"/>
<path d="M6.99496 16.0731C6.75649 16.4546 6.56571 16.8044 6.32724 17.1065C6.26364 17.186 5.99337 17.2019 5.88208 17.1383C5.7708 17.0747 5.65951 16.8362 5.69131 16.7408C5.83439 16.3911 6.02517 16.0572 6.24774 15.7551C6.31134 15.6756 6.56571 15.6597 6.69289 15.7074C6.82008 15.7392 6.88367 15.9141 6.99496 16.0731Z" fill="#C7637E"/>
<path d="M14.42 16.7885C14.2769 16.9475 14.1974 17.1065 14.0862 17.1542C13.9749 17.2019 13.7364 17.186 13.6728 17.1065C13.4502 16.7885 13.2436 16.4387 13.0846 16.0731C13.0528 15.9777 13.1482 15.771 13.2594 15.7074C13.3707 15.6438 13.6251 15.6279 13.6728 15.6915C13.9431 16.0254 14.1656 16.3911 14.42 16.7885Z" fill="#C7637E"/>
<path d="M3.21135 5.59612C3.60881 5.85049 3.97447 6.05716 4.30833 6.31154C4.37192 6.37513 4.35603 6.6454 4.27654 6.75669C4.19704 6.85208 3.95857 6.94747 3.84728 6.89977C3.52932 6.75669 3.21135 6.58181 2.92518 6.35923C2.82979 6.29564 2.798 6.05716 2.82979 5.92998C2.87749 5.80279 3.05237 5.7233 3.21135 5.59612Z" fill="#C7637E"/>
<path d="M3.21155 14.4038C3.06846 14.2766 2.89358 14.1971 2.84589 14.0858C2.79819 13.9586 2.82999 13.7202 2.92538 13.6566C3.21155 13.434 3.51361 13.2591 3.84748 13.116C3.95876 13.0683 4.21314 13.1637 4.29263 13.275C4.37212 13.3704 4.35622 13.6566 4.27673 13.7202C3.97466 13.9586 3.609 14.1653 3.21155 14.4038Z" fill="#C7637E"/>
<path d="M16.7727 14.4038C16.3912 14.1654 16.0255 13.9587 15.7075 13.7043C15.628 13.6407 15.6439 13.3387 15.7234 13.2274C15.8029 13.1161 16.0573 13.0525 16.1845 13.1002C16.4865 13.2274 16.7727 13.3864 17.0271 13.593C17.1225 13.6725 17.1702 13.911 17.1384 14.0541C17.1225 14.1972 16.9317 14.2767 16.7727 14.4038Z" fill="#C7637E"/>
<path d="M2.57532 10.4133C2.43223 10.4133 2.24145 10.461 2.13017 10.3974C1.97118 10.3179 1.76451 10.1272 1.78041 9.99998C1.78041 9.85689 2.00298 9.65022 2.14607 9.61842C2.43223 9.55483 2.7502 9.55483 3.05227 9.61842C3.21125 9.65022 3.40203 9.84099 3.43382 9.99998C3.49742 10.2543 3.30664 10.3974 3.03637 10.4133C2.87739 10.4133 2.7343 10.4133 2.57532 10.4133Z" fill="#C7637E"/>
<path d="M17.3767 10.4133C17.2337 10.4133 17.1065 10.4133 16.9634 10.4133C16.709 10.3974 16.5182 10.2385 16.5659 9.99998C16.5977 9.84099 16.7885 9.65022 16.9475 9.61842C17.2337 9.55483 17.5516 9.55483 17.8537 9.61842C18.0127 9.65022 18.2035 9.85689 18.2352 9.99998C18.2829 10.2385 18.0922 10.3974 17.8378 10.4133C17.6788 10.4133 17.5357 10.4133 17.3767 10.4133Z" fill="#C7637E"/>
<path d="M9.58651 17.3927C9.58651 17.2496 9.53881 17.0588 9.6024 16.9475C9.6819 16.7885 9.87267 16.5978 9.99986 16.5978C10.1429 16.5978 10.3496 16.8044 10.3814 16.9634C10.445 17.2496 10.445 17.5676 10.3814 17.8696C10.3496 18.0286 10.1588 18.2194 9.99986 18.2512C9.76139 18.2989 9.6024 18.124 9.58651 17.8537C9.58651 17.6947 9.58651 17.5358 9.58651 17.3927Z" fill="#C7637E"/>
</svg>
